<svg width="24" height="24" viewBox="0 0 24 24" fill="none" xmlns="http://www.w3.org/2000/svg">
<path fill-rule="evenodd" clip-rule="evenodd" d="M19.4596 5.45972C19.7134 5.20588 19.7134 4.79432 19.4596 4.54048C19.2058 4.28664 18.7942 4.28664 18.5404 4.54048L12 11.0809L5.4596 4.54048C5.20575 4.28664 4.7942 4.28664 4.54036 4.54048C4.28652 4.79432 4.28652 5.20588 4.54036 5.45972L11.0807 12.0001L4.54036 18.5405C4.28652 18.7943 4.28652 19.2059 4.54036 19.4597C4.7942 19.7136 5.20575 19.7136 5.45959 19.4597L12 12.9193L18.5404 19.4597C18.7942 19.7136 19.2058 19.7136 19.4596 19.4597C19.7134 19.2059 19.7134 18.7943 19.4596 18.5405L12.9192 12.0001L19.4596 5.45972Z" fill="#292A2C"/>
</svg>
