<svg width="24" height="24" viewBox="0 0 24 24" fill="none" xmlns="http://www.w3.org/2000/svg">
<mask id="mask0_51_6684" style="mask-type:alpha" maskUnits="userSpaceOnUse" x="0" y="0" width="24" height="24">
<rect width="24" height="24" fill="#D9D9D9"/>
</mask>
<g mask="url(#mask0_51_6684)">
<path fill-rule="evenodd" clip-rule="evenodd" d="M10.55 19.7004L12 21.0004L13.45 19.7004C15.1333 18.1837 16.525 16.8754 17.625 15.7754C18.725 14.6754 19.6 13.6879 20.25 12.8129C20.9 11.9379 21.3542 11.1337 21.6125 10.4004C21.8708 9.66706 22 8.91706 22 8.15039C22 6.58372 21.475 5.27539 20.425 4.22539C19.375 3.17539 18.0667 2.65039 16.5 2.65039C15.6333 2.65039 14.8083 2.83372 14.025 3.20039C13.2417 3.56706 12.5667 4.08372 12 4.75039C11.4333 4.08372 10.7583 3.56706 9.975 3.20039C9.19167 2.83372 8.36667 2.65039 7.5 2.65039C5.93333 2.65039 4.625 3.17539 3.575 4.22539C2.525 5.27539 2 6.58372 2 8.15039C2 8.91706 2.12917 9.66706 2.3875 10.4004C2.64583 11.1337 3.1 11.9379 3.75 12.8129C4.4 13.6879 5.275 14.6754 6.375 15.7754C7.475 16.8754 8.86667 18.1837 10.55 19.7004Z" fill="#F45053"/>
</g>
</svg>
