<svg width="25" height="24" viewBox="0 0 25 24" fill="none" xmlns="http://www.w3.org/2000/svg">
<path d="M12.25 6C13.35 6 14.25 6.9 14.25 8C14.25 9.1 13.35 10 12.25 10C11.15 10 10.25 9.1 10.25 8C10.25 6.9 11.15 6 12.25 6ZM12.25 16C14.95 16 18.05 17.29 18.25 18H6.25C6.48 17.28 9.56 16 12.25 16ZM12.25 4C10.04 4 8.25 5.79 8.25 8C8.25 10.21 10.04 12 12.25 12C14.46 12 16.25 10.21 16.25 8C16.25 5.79 14.46 4 12.25 4ZM12.25 14C9.58 14 4.25 15.34 4.25 18V20H20.25V18C20.25 15.34 14.92 14 12.25 14Z" fill="#919191"/>
</svg>
