<svg width="20" height="20" viewBox="0 0 20 20" fill="none" xmlns="http://www.w3.org/2000/svg">
<g clip-path="url(#clip0_12_423)">
<path fill-rule="evenodd" clip-rule="evenodd" d="M9.0625 3.59375C6.04219 3.59375 3.59375 6.04219 3.59375 9.0625C3.59375 12.0828 6.04219 14.5312 9.0625 14.5312C12.0828 14.5312 14.5312 12.0828 14.5312 9.0625C14.5312 6.04219 12.0828 3.59375 9.0625 3.59375ZM2.65625 9.0625C2.65625 5.52443 5.52443 2.65625 9.0625 2.65625C12.6006 2.65625 15.4688 5.52443 15.4688 9.0625C15.4688 12.6006 12.6006 15.4688 9.0625 15.4688C5.52443 15.4688 2.65625 12.6006 2.65625 9.0625Z" fill="#292A2C"/>
<path fill-rule="evenodd" clip-rule="evenodd" d="M13.3711 13.3717C13.5541 13.1886 13.8509 13.1886 14.034 13.3717L17.8309 17.1686C18.0139 17.3516 18.0139 17.6484 17.8309 17.8315C17.6478 18.0146 17.351 18.0146 17.168 17.8315L13.3711 14.0346C13.188 13.8515 13.188 13.5547 13.3711 13.3717Z" fill="#292A2C"/>
</g>
<defs>
<clipPath id="clip0_12_423">
<rect width="20" height="20" fill="white"/>
</clipPath>
</defs>
</svg>
