<svg width="50" height="50" viewBox="0 0 50 50" fill="none" xmlns="http://www.w3.org/2000/svg">
<rect width="50" height="50" fill="white"/>
<path d="M22.2923 23.292C15.9263 23.9531 11.7219 26.7702 9.80014 28.6931C9.52722 28.9661 9 28.7756 9 28.3895V9.37313C9 9.26611 9.04085 9.16346 9.12174 9.09338C11.7413 6.82395 20.4011 8.28867 25.2462 11.6348C28.8186 14.102 35.9014 15.4236 39.8814 15.8896C40.2552 15.9334 40.3765 16.4171 40.057 16.6161C36.4496 18.8633 29.112 22.5837 22.2923 23.292Z" fill="url(#paint0_linear_99_8487)"/>
<path d="M13.9231 42V25.9714M22.2923 23.292C15.9263 23.9531 11.7219 26.7702 9.80014 28.6931C9.52722 28.9661 9 28.7756 9 28.3895V9.37313C9 9.26611 9.04085 9.16346 9.12174 9.09338C11.7413 6.82395 20.4011 8.28867 25.2462 11.6348C28.8186 14.102 35.9014 15.4236 39.8814 15.8896C40.2552 15.9334 40.3765 16.4171 40.057 16.6161C36.4496 18.8633 29.112 22.5837 22.2923 23.292Z" stroke="black"/>
<ellipse cx="14.9075" cy="14.3143" rx="0.984615" ry="1.45714" fill="black"/>
<ellipse cx="18.8459" cy="14.3143" rx="0.984615" ry="1.45714" fill="black"/>
<path d="M18.8457 16.7429C18.8457 17.8159 17.964 18.6857 16.8765 18.6857C15.7889 18.6857 14.9072 17.8159 14.9072 16.7429" stroke="black"/>
<defs>
<linearGradient id="paint0_linear_99_8487" x1="9" y1="16.2571" x2="41.4923" y2="16.2571" gradientUnits="userSpaceOnUse">
<stop stop-color="#A5D5FF"/>
<stop offset="1" stop-color="#0088FF"/>
</linearGradient>
</defs>
</svg>
